<svg width="28" height="29" viewBox="0 0 28 29" fill="none" xmlns="http://www.w3.org/2000/svg">
<circle cx="14" cy="14.5" r="12" fill="#FC5285"/>
<g clip-path="url(#clip0_1_396)">
<path d="M17.7384 21.5575L17.4869 22.5856C16.7324 22.8834 16.1297 23.1101 15.6809 23.2659C15.2316 23.4222 14.7096 23.5 14.1148 23.5C13.2013 23.5 12.4909 23.2762 11.9842 22.8318C11.4774 22.3856 11.224 21.8201 11.224 21.1342C11.224 20.8687 11.2424 20.5955 11.2806 20.3172C11.3192 20.0386 11.3805 19.7249 11.4644 19.3741L12.4073 16.0367C12.4912 15.7171 12.5625 15.4143 12.6196 15.128C12.6775 14.8434 12.7054 14.5815 12.7054 14.3459C12.7054 13.9196 12.6172 13.6215 12.4415 13.4539C12.2658 13.2868 11.9306 13.2019 11.4329 13.2019C11.1892 13.2019 10.9386 13.2409 10.6833 13.3164C10.4267 13.3923 10.2075 13.4655 10.0234 13.5336L10.2756 12.5047C10.8933 12.2532 11.4837 12.0378 12.0485 11.8591C12.6133 11.6798 13.147 11.5901 13.6518 11.5901C14.5589 11.5901 15.2589 11.8094 15.7504 12.2478C16.242 12.6866 16.4877 13.2555 16.4877 13.9564C16.4877 14.1014 16.4715 14.357 16.4369 14.7222C16.403 15.0883 16.3399 15.4237 16.2479 15.7287L15.309 19.0528C15.2321 19.3198 15.1629 19.625 15.1027 19.9685C15.0406 20.3097 15.0109 20.5704 15.0109 20.7452C15.0109 21.1866 15.1093 21.488 15.3066 21.6482C15.5054 21.8084 15.8477 21.8881 16.3339 21.8881C16.5622 21.8881 16.8219 21.8476 17.1105 21.768C17.3983 21.6885 17.6082 21.6186 17.7384 21.5575ZM17.9765 7.60205C17.9765 8.1812 17.7583 8.67582 17.3196 9.08251C16.8821 9.49066 16.3549 9.6949 15.7382 9.6949C15.1195 9.6949 14.591 9.49066 14.1485 9.08251C13.7068 8.67565 13.4854 8.1812 13.4854 7.60205C13.4854 7.02402 13.7068 6.5286 14.1485 6.11674C14.5902 5.70553 15.1196 5.5 15.7382 5.5C16.3547 5.5 16.8821 5.70601 17.3196 6.11674C17.7586 6.5286 17.9765 7.02418 17.9765 7.60205Z" fill="white"/>
</g>
<circle cx="14" cy="14.5" r="13.5" stroke="#FC5285"/>
<defs>
<clipPath id="clip0_1_396">
<rect width="18" height="18" fill="white" transform="translate(5 5.5)"/>
</clipPath>
</defs>
</svg>
