<svg width="181" height="58" viewBox="0 0 181 58" fill="none" xmlns="http://www.w3.org/2000/svg">
<g clip-path="url(#clip0_1_340)">
<path fill-rule="evenodd" clip-rule="evenodd" d="M21.0056 2.52132C19.2759 1.10768 16.7777 0.419922 13.549 0.419922H6.5538L0.75 27.6997H8.09113L9.97439 18.6447H11.5886C15.3168 18.6447 18.2379 17.766 20.3904 15.9703C22.5427 14.1747 23.6188 11.7294 23.6188 8.59639C23.6188 5.96012 22.7348 3.93517 21.0054 2.52153L21.0056 2.52132ZM12.6266 6.38023H13.7411C14.5482 6.38023 15.1632 6.60955 15.586 7.06799C16.0472 7.48831 16.2779 8.09963 16.2779 8.82551C16.2779 9.93359 15.932 10.8505 15.2401 11.5763C14.5099 12.3022 13.5873 12.6844 12.4728 12.6844H11.2814L12.6266 6.38023Z" fill="#393765"/>
<path fill-rule="evenodd" clip-rule="evenodd" d="M35.5349 17.7658L39.1862 27.6995H47.1808L46.4506 25.9037L42.2227 16.2757C43.9907 15.5115 45.2976 14.4034 46.1816 12.99C47.0656 11.538 47.5268 9.85693 47.5268 7.90842C47.5268 5.3867 46.6813 3.51463 44.9902 2.29199C43.3374 1.03124 40.9161 0.419922 37.7643 0.419922H30.5001L24.6963 27.6997H32.0374L34.1514 17.766H35.5351L35.5349 17.7658ZM36.6496 5.99802H37.6489C38.4945 5.99802 39.1093 6.18902 39.5321 6.60934C39.955 6.99155 40.1854 7.60287 40.1854 8.36686C40.1854 9.5895 39.8395 10.5447 39.1476 11.1943C38.4174 11.8819 37.4949 12.2258 36.3035 12.2258H35.3426L36.6494 5.99802H36.6496Z" fill="#393765"/>
<path fill-rule="evenodd" clip-rule="evenodd" d="M58.211 2.17805C55.9818 3.63001 54.2521 5.73141 52.9453 8.48224C51.677 11.2331 51.0234 14.2897 51.0234 17.5754C51.0234 20.8611 51.9458 23.4592 53.7524 25.2932C55.5973 27.1655 58.2108 28.0823 61.5547 28.0823C64.4374 28.0823 66.974 27.3565 69.1648 25.9045C71.3557 24.4144 73.0852 22.313 74.3151 19.6003C75.5834 16.8495 76.1984 13.831 76.1984 10.507C76.1984 7.18295 75.3144 4.62311 73.508 2.78916C71.6631 0.917084 69.1648 0 65.8978 0C62.9768 0 60.44 0.725875 58.2108 2.17784L58.211 2.17805ZM67.8968 16.3146C67.3201 18.0721 66.5516 19.4477 65.5138 20.4793C64.476 21.5109 63.3998 22.0458 62.2084 22.0458C59.7102 22.0458 58.4417 20.5557 58.4417 17.5375C58.4417 15.6271 58.7493 13.755 59.364 11.921C59.979 10.0871 60.8247 8.63533 61.8623 7.60369C62.9001 6.57205 64.0531 6.03717 65.2831 6.03717C66.4361 6.03717 67.2818 6.41917 67.8968 7.22148C68.4734 8.0238 68.7808 9.17 68.7808 10.5838C68.7808 12.6469 68.5117 14.5573 67.8968 16.3148V16.3146Z" fill="#393765"/>
<path fill-rule="evenodd" clip-rule="evenodd" d="M80.7241 35.3409C82.1076 34.6915 83.2609 33.6598 84.1447 32.2462C85.0287 30.8707 85.7206 28.9222 86.2587 26.4388L91.8701 0.419922H84.529L79.1097 25.5219C78.7254 27.203 78.2257 28.4256 77.5338 29.1515C76.8419 29.8774 75.8427 30.2596 74.4975 30.2596C73.5366 30.2596 72.4604 30.1067 71.2305 29.8011V35.7614C72.5757 36.1053 73.8825 36.2963 75.2277 36.2963C77.4571 36.2963 79.3018 35.9908 80.7239 35.3411L80.7241 35.3409Z" fill="#393765"/>
<path fill-rule="evenodd" clip-rule="evenodd" d="M109.9 21.7011H100.944L102.021 16.5431H110.361L111.706 10.6211H103.366L104.25 6.3419H113.205L114.435 0.419922H98.1385L92.335 27.6995H108.631L109.9 21.7011Z" fill="#393765"/>
<path fill-rule="evenodd" clip-rule="evenodd" d="M132.883 6.57163C133.882 6.91551 134.958 7.45038 136.111 8.13814L138.879 2.44528C136.188 0.802317 133.152 0 129.846 0C127.04 0 124.542 0.68776 122.351 2.1014C120.161 3.51503 118.431 5.61643 117.163 8.36726C115.894 11.1181 115.279 14.1747 115.279 17.4606C115.279 20.8611 116.163 23.459 117.893 25.293C119.661 27.1653 122.159 28.0821 125.426 28.0821C128.386 28.0821 131.153 27.5089 133.69 26.4011V20.3643C132.229 20.9756 130.999 21.396 129.923 21.6634C128.847 21.9308 127.809 22.0454 126.771 22.0454C125.464 22.0454 124.465 21.6253 123.735 20.8228C123.043 19.9821 122.697 18.7595 122.697 17.0784C122.697 15.0916 123.004 13.2576 123.619 11.5384C124.234 9.81901 125.118 8.48181 126.195 7.52661C127.271 6.57142 128.501 6.07465 129.846 6.07465C130.922 6.07465 131.921 6.22753 132.882 6.57141L132.883 6.57163Z" fill="#393765"/>
<path fill-rule="evenodd" clip-rule="evenodd" d="M153.749 6.45646H159.706L161.051 0.419922H141.757L140.45 6.45646H146.408L141.949 27.6995H149.29L153.749 6.45646Z" fill="#393765"/>
<path fill-rule="evenodd" clip-rule="evenodd" d="M95.5877 58.0006L96.1552 55.3148H89.0492L92.5616 38.8242H89.4275L85.3477 58.0006H95.5877Z" fill="#4F5150"/>
<path fill-rule="evenodd" clip-rule="evenodd" d="M104.02 58.0006L108.127 38.8242H105.02L100.913 58.0006H104.02Z" fill="#4F5150"/>
<path fill-rule="evenodd" clip-rule="evenodd" d="M115.905 50.1312H122.498L123.092 47.4725H116.472L117.742 41.51H124.821L125.388 38.8242H115.176L111.096 58.0006H114.23L115.905 50.1312Z" fill="#4F5150"/>
<path fill-rule="evenodd" clip-rule="evenodd" d="M137.6 55.3417H130.495L131.764 49.3524H138.411L138.951 46.6935H132.332L133.439 41.51H140.545L141.113 38.8242H130.873L126.793 58.0006H137.033L137.6 55.3417Z" fill="#4F5150"/>
<path fill-rule="evenodd" clip-rule="evenodd" d="M88.5073 32.8039H143.669C144.314 32.8039 144.86 33.2776 144.946 33.913L147.012 49.0738L150.213 33.5711C150.336 32.975 150.863 32.5477 151.475 32.5477H156.734L161.623 11.2798C161.757 10.6967 162.279 10.2842 162.879 10.2842C162.886 10.2842 162.893 10.2842 162.899 10.2844C163.508 10.2937 164.027 10.7248 164.144 11.3184L168.346 32.5868H179.461C180.173 32.5868 180.749 33.1603 180.749 33.8679C180.749 34.5756 180.173 35.149 179.461 35.149H167.286C166.67 35.149 166.14 34.7156 166.021 34.115L162.784 17.7303L159.018 34.1142C158.884 34.6965 158.362 35.1098 157.761 35.1098H152.526L148.014 56.9646C147.892 57.5622 147.362 57.9882 146.753 57.9882C146.738 57.9882 146.723 57.988 146.709 57.9878C146.081 57.9666 145.559 57.4983 145.475 56.8793L142.543 35.3661H88.5068V32.8039H88.5073Z" fill="#C8353A"/>
<path fill-rule="evenodd" clip-rule="evenodd" d="M21.0056 2.52132C19.2759 1.10768 16.7777 0.419922 13.549 0.419922H6.5538L0.75 27.6997H8.09113L9.97439 18.6447H11.5886C15.3168 18.6447 18.2379 17.766 20.3904 15.9703C22.5427 14.1747 23.6188 11.7294 23.6188 8.59639C23.6188 5.96012 22.7348 3.93517 21.0054 2.52153L21.0056 2.52132ZM12.6266 6.38023H13.7411C14.5482 6.38023 15.1632 6.60955 15.586 7.06799C16.0472 7.48831 16.2779 8.09963 16.2779 8.82551C16.2779 9.93359 15.932 10.8505 15.2401 11.5763C14.5099 12.3022 13.5873 12.6844 12.4728 12.6844H11.2814L12.6266 6.38023Z" fill="#393765"/>
<path fill-rule="evenodd" clip-rule="evenodd" d="M35.5349 17.7658L39.1862 27.6995H47.1808L46.4506 25.9037L42.2227 16.2757C43.9907 15.5115 45.2976 14.4034 46.1816 12.99C47.0656 11.538 47.5268 9.85693 47.5268 7.90842C47.5268 5.3867 46.6813 3.51463 44.9902 2.29199C43.3374 1.03124 40.9161 0.419922 37.7643 0.419922H30.5001L24.6963 27.6997H32.0374L34.1514 17.766H35.5351L35.5349 17.7658ZM36.6496 5.99802H37.6489C38.4945 5.99802 39.1093 6.18902 39.5321 6.60934C39.955 6.99155 40.1854 7.60287 40.1854 8.36686C40.1854 9.5895 39.8395 10.5447 39.1476 11.1943C38.4174 11.8819 37.4949 12.2258 36.3035 12.2258H35.3426L36.6494 5.99802H36.6496Z" fill="#393765"/>
<path fill-rule="evenodd" clip-rule="evenodd" d="M58.211 2.17805C55.9818 3.63001 54.2521 5.73141 52.9453 8.48224C51.677 11.2331 51.0234 14.2897 51.0234 17.5754C51.0234 20.8611 51.9458 23.4592 53.7524 25.2932C55.5973 27.1655 58.2108 28.0823 61.5547 28.0823C64.4374 28.0823 66.974 27.3565 69.1648 25.9045C71.3557 24.4144 73.0852 22.313 74.3151 19.6003C75.5834 16.8495 76.1984 13.831 76.1984 10.507C76.1984 7.18295 75.3144 4.62311 73.508 2.78916C71.6631 0.917084 69.1648 0 65.8978 0C62.9768 0 60.44 0.725875 58.2108 2.17784L58.211 2.17805ZM67.8968 16.3146C67.3201 18.0721 66.5516 19.4477 65.5138 20.4793C64.476 21.5109 63.3998 22.0458 62.2084 22.0458C59.7102 22.0458 58.4417 20.5557 58.4417 17.5375C58.4417 15.6271 58.7493 13.755 59.364 11.921C59.979 10.0871 60.8247 8.63533 61.8623 7.60369C62.9001 6.57205 64.0531 6.03717 65.2831 6.03717C66.4361 6.03717 67.2818 6.41917 67.8968 7.22148C68.4734 8.0238 68.7808 9.17 68.7808 10.5838C68.7808 12.6469 68.5117 14.5573 67.8968 16.3148V16.3146Z" fill="#393765"/>
<path fill-rule="evenodd" clip-rule="evenodd" d="M80.7241 35.3409C82.1076 34.6915 83.2609 33.6598 84.1447 32.2462C85.0287 30.8707 85.7206 28.9222 86.2587 26.4388L91.8701 0.419922H84.529L79.1097 25.5219C78.7254 27.203 78.2257 28.4256 77.5338 29.1515C76.8419 29.8774 75.8427 30.2596 74.4975 30.2596C73.5366 30.2596 72.4604 30.1067 71.2305 29.8011V35.7614C72.5757 36.1053 73.8825 36.2963 75.2277 36.2963C77.4571 36.2963 79.3018 35.9908 80.7239 35.3411L80.7241 35.3409Z" fill="#393765"/>
<path fill-rule="evenodd" clip-rule="evenodd" d="M109.9 21.7011H100.944L102.021 16.5431H110.361L111.706 10.6211H103.366L104.25 6.3419H113.205L114.435 0.419922H98.1385L92.335 27.6995H108.631L109.9 21.7011Z" fill="#393765"/>
<path fill-rule="evenodd" clip-rule="evenodd" d="M132.883 6.57163C133.882 6.91551 134.958 7.45038 136.111 8.13814L138.879 2.44528C136.188 0.802317 133.152 0 129.846 0C127.04 0 124.542 0.68776 122.351 2.1014C120.161 3.51503 118.431 5.61643 117.163 8.36726C115.894 11.1181 115.279 14.1747 115.279 17.4606C115.279 20.8611 116.163 23.459 117.893 25.293C119.661 27.1653 122.159 28.0821 125.426 28.0821C128.386 28.0821 131.153 27.5089 133.69 26.4011V20.3643C132.229 20.9756 130.999 21.396 129.923 21.6634C128.847 21.9308 127.809 22.0454 126.771 22.0454C125.464 22.0454 124.465 21.6253 123.735 20.8228C123.043 19.9821 122.697 18.7595 122.697 17.0784C122.697 15.0916 123.004 13.2576 123.619 11.5384C124.234 9.81901 125.118 8.48181 126.195 7.52661C127.271 6.57142 128.501 6.07465 129.846 6.07465C130.922 6.07465 131.921 6.22753 132.882 6.57141L132.883 6.57163Z" fill="#393765"/>
<path fill-rule="evenodd" clip-rule="evenodd" d="M153.749 6.45646H159.706L161.051 0.419922H141.757L140.45 6.45646H146.408L141.949 27.6995H149.29L153.749 6.45646Z" fill="#393765"/>
<path fill-rule="evenodd" clip-rule="evenodd" d="M95.5877 58.0006L96.1552 55.3148H89.0492L92.5616 38.8242H89.4275L85.3477 58.0006H95.5877Z" fill="#4F5150"/>
<path fill-rule="evenodd" clip-rule="evenodd" d="M104.02 58.0006L108.127 38.8242H105.02L100.913 58.0006H104.02Z" fill="#4F5150"/>
<path fill-rule="evenodd" clip-rule="evenodd" d="M115.905 50.1312H122.498L123.092 47.4725H116.472L117.742 41.51H124.821L125.388 38.8242H115.176L111.096 58.0006H114.23L115.905 50.1312Z" fill="#4F5150"/>
<path fill-rule="evenodd" clip-rule="evenodd" d="M137.6 55.3417H130.495L131.764 49.3524H138.411L138.951 46.6935H132.332L133.439 41.51H140.545L141.113 38.8242H130.873L126.793 58.0006H137.033L137.6 55.3417Z" fill="#4F5150"/>
<path fill-rule="evenodd" clip-rule="evenodd" d="M88.5073 32.8039H143.669C144.314 32.8039 144.86 33.2776 144.946 33.913L147.012 49.0738L150.213 33.5711C150.336 32.975 150.863 32.5477 151.475 32.5477H156.734L161.623 11.2798C161.757 10.6967 162.279 10.2842 162.879 10.2842C162.886 10.2842 162.893 10.2842 162.899 10.2844C163.508 10.2937 164.027 10.7248 164.144 11.3184L168.346 32.5868H179.461C180.173 32.5868 180.749 33.1603 180.749 33.8679C180.749 34.5756 180.173 35.149 179.461 35.149H167.286C166.67 35.149 166.14 34.7156 166.021 34.115L162.784 17.7303L159.018 34.1142C158.884 34.6965 158.362 35.1098 157.761 35.1098H152.526L148.014 56.9646C147.892 57.5622 147.362 57.9882 146.753 57.9882C146.738 57.9882 146.723 57.988 146.709 57.9878C146.081 57.9666 145.559 57.4983 145.475 56.8793L142.543 35.3661H88.5068V32.8039H88.5073Z" fill="#C8353A"/>
<path fill-rule="evenodd" clip-rule="evenodd" d="M21.0056 2.52132C19.2759 1.10768 16.7777 0.419922 13.549 0.419922H6.5538L0.75 27.6997H8.09113L9.97439 18.6447H11.5886C15.3168 18.6447 18.2379 17.766 20.3904 15.9703C22.5427 14.1747 23.6188 11.7294 23.6188 8.59639C23.6188 5.96012 22.7348 3.93517 21.0054 2.52153L21.0056 2.52132ZM12.6266 6.38023H13.7411C14.5482 6.38023 15.1632 6.60955 15.586 7.06799C16.0472 7.48831 16.2779 8.09963 16.2779 8.82551C16.2779 9.93359 15.932 10.8505 15.2401 11.5763C14.5099 12.3022 13.5873 12.6844 12.4728 12.6844H11.2814L12.6266 6.38023Z" fill="#393765"/>
<path fill-rule="evenodd" clip-rule="evenodd" d="M35.5349 17.7658L39.1862 27.6995H47.1808L46.4506 25.9037L42.2227 16.2757C43.9907 15.5115 45.2976 14.4034 46.1816 12.99C47.0656 11.538 47.5268 9.85693 47.5268 7.90842C47.5268 5.3867 46.6813 3.51463 44.9902 2.29199C43.3374 1.03124 40.9161 0.419922 37.7643 0.419922H30.5001L24.6963 27.6997H32.0374L34.1514 17.766H35.5351L35.5349 17.7658ZM36.6496 5.99802H37.6489C38.4945 5.99802 39.1093 6.18902 39.5321 6.60934C39.955 6.99155 40.1854 7.60287 40.1854 8.36686C40.1854 9.5895 39.8395 10.5447 39.1476 11.1943C38.4174 11.8819 37.4949 12.2258 36.3035 12.2258H35.3426L36.6494 5.99802H36.6496Z" fill="#393765"/>
<path fill-rule="evenodd" clip-rule="evenodd" d="M58.211 2.17805C55.9818 3.63001 54.2521 5.73141 52.9453 8.48224C51.677 11.2331 51.0234 14.2897 51.0234 17.5754C51.0234 20.8611 51.9458 23.4592 53.7524 25.2932C55.5973 27.1655 58.2108 28.0823 61.5547 28.0823C64.4374 28.0823 66.974 27.3565 69.1648 25.9045C71.3557 24.4144 73.0852 22.313 74.3151 19.6003C75.5834 16.8495 76.1984 13.831 76.1984 10.507C76.1984 7.18295 75.3144 4.62311 73.508 2.78916C71.6631 0.917084 69.1648 0 65.8978 0C62.9768 0 60.44 0.725875 58.2108 2.17784L58.211 2.17805ZM67.8968 16.3146C67.3201 18.0721 66.5516 19.4477 65.5138 20.4793C64.476 21.5109 63.3998 22.0458 62.2084 22.0458C59.7102 22.0458 58.4417 20.5557 58.4417 17.5375C58.4417 15.6271 58.7493 13.755 59.364 11.921C59.979 10.0871 60.8247 8.63533 61.8623 7.60369C62.9001 6.57205 64.0531 6.03717 65.2831 6.03717C66.4361 6.03717 67.2818 6.41917 67.8968 7.22148C68.4734 8.0238 68.7808 9.17 68.7808 10.5838C68.7808 12.6469 68.5117 14.5573 67.8968 16.3148V16.3146Z" fill="#393765"/>
<path fill-rule="evenodd" clip-rule="evenodd" d="M80.7241 35.3409C82.1076 34.6915 83.2609 33.6598 84.1447 32.2462C85.0287 30.8707 85.7206 28.9222 86.2587 26.4388L91.8701 0.419922H84.529L79.1097 25.5219C78.7254 27.203 78.2257 28.4256 77.5338 29.1515C76.8419 29.8774 75.8427 30.2596 74.4975 30.2596C73.5366 30.2596 72.4604 30.1067 71.2305 29.8011V35.7614C72.5757 36.1053 73.8825 36.2963 75.2277 36.2963C77.4571 36.2963 79.3018 35.9908 80.7239 35.3411L80.7241 35.3409Z" fill="#393765"/>
<path fill-rule="evenodd" clip-rule="evenodd" d="M109.9 21.7011H100.944L102.021 16.5431H110.361L111.706 10.6211H103.366L104.25 6.3419H113.205L114.435 0.419922H98.1385L92.335 27.6995H108.631L109.9 21.7011Z" fill="#393765"/>
<path fill-rule="evenodd" clip-rule="evenodd" d="M132.883 6.57163C133.882 6.91551 134.958 7.45038 136.111 8.13814L138.879 2.44528C136.188 0.802317 133.152 0 129.846 0C127.04 0 124.542 0.68776 122.351 2.1014C120.161 3.51503 118.431 5.61643 117.163 8.36726C115.894 11.1181 115.279 14.1747 115.279 17.4606C115.279 20.8611 116.163 23.459 117.893 25.293C119.661 27.1653 122.159 28.0821 125.426 28.0821C128.386 28.0821 131.153 27.5089 133.69 26.4011V20.3643C132.229 20.9756 130.999 21.396 129.923 21.6634C128.847 21.9308 127.809 22.0454 126.771 22.0454C125.464 22.0454 124.465 21.6253 123.735 20.8228C123.043 19.9821 122.697 18.7595 122.697 17.0784C122.697 15.0916 123.004 13.2576 123.619 11.5384C124.234 9.81901 125.118 8.48181 126.195 7.52661C127.271 6.57142 128.501 6.07465 129.846 6.07465C130.922 6.07465 131.921 6.22753 132.882 6.57141L132.883 6.57163Z" fill="#393765"/>
<path fill-rule="evenodd" clip-rule="evenodd" d="M153.749 6.45646H159.706L161.051 0.419922H141.757L140.45 6.45646H146.408L141.949 27.6995H149.29L153.749 6.45646Z" fill="#393765"/>
<path fill-rule="evenodd" clip-rule="evenodd" d="M95.5877 58.0006L96.1552 55.3148H89.0492L92.5616 38.8242H89.4275L85.3477 58.0006H95.5877Z" fill="#4F5150"/>
<path fill-rule="evenodd" clip-rule="evenodd" d="M104.02 58.0006L108.127 38.8242H105.02L100.913 58.0006H104.02Z" fill="#4F5150"/>
<path fill-rule="evenodd" clip-rule="evenodd" d="M115.905 50.1312H122.498L123.092 47.4725H116.472L117.742 41.51H124.821L125.388 38.8242H115.176L111.096 58.0006H114.23L115.905 50.1312Z" fill="#4F5150"/>
<path fill-rule="evenodd" clip-rule="evenodd" d="M137.6 55.3417H130.495L131.764 49.3524H138.411L138.951 46.6935H132.332L133.439 41.51H140.545L141.113 38.8242H130.873L126.793 58.0006H137.033L137.6 55.3417Z" fill="#4F5150"/>
<path fill-rule="evenodd" clip-rule="evenodd" d="M88.5073 32.8039H143.669C144.314 32.8039 144.86 33.2776 144.946 33.913L147.012 49.0738L150.213 33.5711C150.336 32.975 150.863 32.5477 151.475 32.5477H156.734L161.623 11.2798C161.757 10.6967 162.279 10.2842 162.879 10.2842C162.886 10.2842 162.893 10.2842 162.899 10.2844C163.508 10.2937 164.027 10.7248 164.144 11.3184L168.346 32.5868H179.461C180.173 32.5868 180.749 33.1603 180.749 33.8679C180.749 34.5756 180.173 35.149 179.461 35.149H167.286C166.67 35.149 166.14 34.7156 166.021 34.115L162.784 17.7303L159.018 34.1142C158.884 34.6965 158.362 35.1098 157.761 35.1098H152.526L148.014 56.9646C147.892 57.5622 147.362 57.9882 146.753 57.9882C146.738 57.9882 146.723 57.988 146.709 57.9878C146.081 57.9666 145.559 57.4983 145.475 56.8793L142.543 35.3661H88.5068V32.8039H88.5073Z" fill="#C8353A"/>
</g>
<defs>
<clipPath id="clip0_1_340">
<rect width="180" height="58" fill="white" transform="translate(0.75)"/>
</clipPath>
</defs>
</svg>
