<svg width="17" height="14" viewBox="0 0 17 14" fill="none" xmlns="http://www.w3.org/2000/svg">
<path d="M8.75 14C8.63969 14 8.52981 13.9617 8.44147 13.8847C7.75941 13.2909 7.11075 12.7404 6.50056 12.2227C3.05678 9.30098 0.75 7.3705 0.75 4.55821C0.75 1.95963 2.59491 0 5 0C6.89559 0 8.11234 1.31843 8.75 2.5056C9.38766 1.31843 10.6044 0 12.5 0C14.9051 0 16.75 1.95963 16.75 4.55821C16.75 7.37053 14.4432 9.30098 10.9994 12.2227C10.3892 12.7404 9.74059 13.2909 9.05853 13.8847C8.97019 13.9617 8.86031 14 8.75 14Z" fill="#D92B22"/>
</svg>
