<svg width="24" height="16" viewBox="0 0 24 16" fill="none" xmlns="http://www.w3.org/2000/svg">
<path d="M13.8671 13.404H1.44037C1.05929 13.404 0.75 13.923 0.75 14.5624C0.75 15.2018 1.05929 15.7207 1.44037 15.7207H13.8671C14.2481 15.7207 14.5574 15.2018 14.5574 14.5624C14.5574 13.923 14.2481 13.404 13.8671 13.404Z" fill="#FC5285"/>
<path d="M18.0927 6.73216H1.66277C1.15892 6.73216 0.75 7.25109 0.75 7.89049C0.75 8.52989 1.15892 9.04883 1.66277 9.04883H18.0927C18.5965 9.04883 19.0054 8.52989 19.0054 7.89049C19.0054 7.25109 18.5965 6.73216 18.0927 6.73216Z" fill="#FC5285"/>
<path d="M22.7583 0.153057H1.90833C1.26893 0.153057 0.75 0.671991 0.75 1.31139C0.75 1.95079 1.26893 2.46973 1.90833 2.46973H22.7583C23.3977 2.46973 23.9167 1.95079 23.9167 1.31139C23.9167 0.671991 23.3977 0.153057 22.7583 0.153057Z" fill="#FC5285"/>
</svg>
