<svg width="23" height="23" viewBox="0 0 23 23" fill="none" xmlns="http://www.w3.org/2000/svg">
<g clip-path="url(#clip0_1_9858)">
<path d="M16.6484 16.0654C17.1231 16.0654 17.5078 15.6807 17.5078 15.2061C17.5078 14.7314 17.1231 14.3467 16.6484 14.3467C16.1738 14.3467 15.7891 14.7314 15.7891 15.2061C15.7891 15.6807 16.1738 16.0654 16.6484 16.0654Z" fill="#FC5285"/>
<path d="M20.5156 15.8936C20.9903 15.8936 21.375 15.5088 21.375 15.0342V11.8545C21.375 9.95905 19.8329 8.41699 17.9375 8.41699H16.9047V5.38623C16.9047 2.60311 14.5916 0.338867 11.7484 0.338867C8.90525 0.338867 6.59216 2.60311 6.59216 5.38623V8.41699H5.5625C3.66706 8.41699 2.125 9.95905 2.125 11.8545V18.9014C2.125 20.7968 3.66706 22.3389 5.5625 22.3389H17.9375C19.8329 22.3389 21.375 20.7968 21.375 18.9014C21.375 18.4267 20.9903 18.042 20.5156 18.042C20.041 18.042 19.6562 18.4267 19.6562 18.9014C19.6562 19.8491 18.8852 20.6201 17.9375 20.6201H5.5625C4.61478 20.6201 3.84375 19.8491 3.84375 18.9014V11.8545C3.84375 10.9068 4.61478 10.1357 5.5625 10.1357H17.9375C18.8852 10.1357 19.6562 10.9068 19.6562 11.8545V15.0342C19.6562 15.5088 20.041 15.8936 20.5156 15.8936ZM15.1859 8.41699H8.31091V5.38623C8.31091 3.55082 9.85297 2.05762 11.7484 2.05762C13.6438 2.05762 15.1859 3.55082 15.1859 5.38623V8.41699Z" fill="#FC5285"/>
<path d="M10.1602 16.0654C10.6348 16.0654 11.0195 15.6807 11.0195 15.2061C11.0195 14.7314 10.6348 14.3467 10.1602 14.3467C9.68554 14.3467 9.30078 14.7314 9.30078 15.2061C9.30078 15.6807 9.68554 16.0654 10.1602 16.0654Z" fill="#FC5285"/>
<path d="M6.9375 16.0654C7.41212 16.0654 7.79688 15.6807 7.79688 15.2061C7.79688 14.7314 7.41212 14.3467 6.9375 14.3467C6.46288 14.3467 6.07812 14.7314 6.07812 15.2061C6.07812 15.6807 6.46288 16.0654 6.9375 16.0654Z" fill="#FC5285"/>
<path d="M13.3828 16.0654C13.8574 16.0654 14.2422 15.6807 14.2422 15.2061C14.2422 14.7314 13.8574 14.3467 13.3828 14.3467C12.9082 14.3467 12.5234 14.7314 12.5234 15.2061C12.5234 15.6807 12.9082 16.0654 13.3828 16.0654Z" fill="#FC5285"/>
</g>
<defs>
<clipPath id="clip0_1_9858">
<rect width="22" height="22" fill="white" transform="translate(0.75 0.338867)"/>
</clipPath>
</defs>
</svg>
