<svg width="38" height="36" viewBox="0 0 38 36" fill="none" xmlns="http://www.w3.org/2000/svg">
<circle cx="26.6543" cy="25.5" r="10.5" fill="#FD72A4" fill-opacity="0.3"/>
<g clip-path="url(#clip0_1_9455)">
<path d="M20.821 31.9997H0.820964C0.452964 31.9997 0.154297 31.701 0.154297 31.333V25.9997C0.154297 23.4263 2.24763 21.333 4.82096 21.333H16.821C19.3943 21.333 21.4876 23.4263 21.4876 25.9997V31.333C21.4876 31.701 21.189 31.9997 20.821 31.9997ZM1.48763 30.6663H20.1543V25.9997C20.1543 24.161 18.6596 22.6663 16.821 22.6663H4.82096C2.9823 22.6663 1.48763 24.161 1.48763 25.9997V30.6663Z" fill="#FC5285"/>
<path d="M10.8213 18.667C7.51329 18.667 4.82129 15.975 4.82129 12.667C4.82129 9.35899 7.51329 6.66699 10.8213 6.66699C14.1293 6.66699 16.8213 9.35899 16.8213 12.667C16.8213 15.975 14.1293 18.667 10.8213 18.667ZM10.8213 8.00033C8.24796 8.00033 6.15462 10.0937 6.15462 12.667C6.15462 15.2403 8.24796 17.3337 10.8213 17.3337C13.3946 17.3337 15.488 15.2403 15.488 12.667C15.488 10.0937 13.3946 8.00033 10.8213 8.00033Z" fill="#FC5285"/>
<path d="M15.3499 12.7772C13.7659 12.7772 12.6219 11.7012 12.0312 10.9758C9.05519 13.2665 5.53119 12.6825 5.37119 12.6572C5.00986 12.5932 4.76852 12.2492 4.83119 11.8865C4.89386 11.5252 5.23519 11.2758 5.60052 11.3425C5.63786 11.3492 9.11786 11.9105 11.7005 9.51183C11.8485 9.37316 12.0512 9.31183 12.2512 9.34116C12.4512 9.37049 12.6272 9.49049 12.7299 9.66516C12.7832 9.75583 14.0459 11.8758 15.9792 11.3572C16.3405 11.2585 16.7005 11.4718 16.7965 11.8265C16.8925 12.1825 16.6832 12.5478 16.3272 12.6438C15.9859 12.7358 15.6592 12.7772 15.3499 12.7772Z" fill="#FC5285"/>
<path d="M26.1543 14.6667C22.8463 14.6667 20.1543 11.9747 20.1543 8.66667V2C20.1543 0.897333 21.0516 0 22.1543 0H30.1543C31.257 0 32.1543 0.897333 32.1543 2V8.66667C32.1543 11.9747 29.4623 14.6667 26.1543 14.6667ZM22.1543 1.33333C21.7876 1.33333 21.4876 1.632 21.4876 2V8.66667C21.4876 11.24 23.581 13.3333 26.1543 13.3333C28.7276 13.3333 30.821 11.24 30.821 8.66667V2C30.821 1.632 30.521 1.33333 30.1543 1.33333H22.1543Z" fill="#FC5285"/>
<path d="M23.4876 27.9997H20.821C20.453 27.9997 20.1543 27.701 20.1543 27.333C20.1543 26.965 20.453 26.6663 20.821 26.6663H23.4876C24.5903 26.6663 25.4876 25.769 25.4876 24.6663V13.9997C25.4876 13.6317 25.7863 13.333 26.1543 13.333C26.5223 13.333 26.821 13.6317 26.821 13.9997V24.6663C26.821 26.505 25.3263 27.9997 23.4876 27.9997Z" fill="#FC5285"/>
<path d="M26.154 9.33333C25.786 9.33333 25.4873 9.03467 25.4873 8.66667V4.66667C25.4873 4.29867 25.786 4 26.154 4C26.522 4 26.8206 4.29867 26.8206 4.66667V8.66667C26.8206 9.03467 26.522 9.33333 26.154 9.33333Z" fill="#FC5285"/>
<path d="M28.154 7.33333H24.154C23.786 7.33333 23.4873 7.03467 23.4873 6.66667C23.4873 6.29867 23.786 6 24.154 6H28.154C28.522 6 28.8206 6.29867 28.8206 6.66667C28.8206 7.03467 28.522 7.33333 28.154 7.33333Z" fill="#FC5285"/>
</g>
<defs>
<clipPath id="clip0_1_9455">
<rect width="32" height="32" fill="white" transform="translate(0.154297)"/>
</clipPath>
</defs>
</svg>
