<svg width="43" height="38" viewBox="0 0 43 38" fill="none" xmlns="http://www.w3.org/2000/svg">
<path d="M3.56028 32.5311L19.9877 4.83557C21.0051 3.11599 21.8667 3.2864 22.8842 5.00598L38.0702 31.0829C39.1135 32.8462 39.8578 34.7243 37.8219 34.7243H5.25682C3.22091 34.7242 2.51695 34.2945 3.56028 32.5311Z" fill="#ED1C24"/>
<path d="M22.3679 3.5968C22.3651 3.592 22.3622 3.5872 22.3592 3.58248C22.12 3.2044 21.7295 2.97709 21.3124 2.97709C20.8976 2.97709 20.5066 3.20192 20.266 3.57901C20.2622 3.58488 20.2586 3.59076 20.255 3.59672L2.79294 33.1092C2.78963 33.1148 2.7864 33.1204 2.78334 33.1261C2.32127 33.9722 2.83812 34.9888 3.82804 35.0225C3.83516 35.0227 3.84228 35.0228 3.84939 35.0228H30.4522C30.7949 35.0228 31.0728 34.7449 31.0728 34.4022C31.0728 34.0594 30.7949 33.7816 30.4522 33.7816C30.4405 33.7816 3.85866 33.7821 3.84757 33.7797C3.85684 33.7528 21.2958 4.28196 21.3114 4.24886C21.3306 4.28651 38.7676 33.738 38.7757 33.7798C38.76 33.7838 32.9518 33.7816 32.9347 33.7816C32.5919 33.7816 32.3141 34.0595 32.3141 34.4023C32.3141 34.745 32.5919 35.0229 32.9347 35.0229C32.951 35.0229 38.7794 35.023 38.7951 35.0225C39.7718 34.9896 40.3113 33.9778 39.8396 33.126C39.8387 33.1247 22.3712 3.60243 22.3679 3.5968ZM22.9925 12.6485C22.5608 12.181 21.9483 11.9128 21.3119 11.9128C20.6756 11.9128 20.063 12.1809 19.6313 12.6485C19.1996 13.1161 18.981 13.748 19.0316 14.3825L19.3503 18.3772C19.3776 18.7188 19.6765 18.9739 20.0184 18.9464C20.3601 18.9192 20.6149 18.6201 20.5876 18.2784L20.2689 14.2837C20.2454 13.9892 20.3428 13.7076 20.5432 13.4906C20.7436 13.2736 21.0166 13.1541 21.3119 13.1541C21.6072 13.1541 21.8802 13.2736 22.0807 13.4906C22.281 13.7077 22.3785 13.9892 22.355 14.2837L21.539 24.5105C21.5296 24.628 21.4298 24.7201 21.3119 24.7201C21.194 24.7201 21.0942 24.628 21.0849 24.5104L20.7603 20.4425C20.7331 20.1008 20.4342 19.8458 20.0923 19.8733C19.7506 19.9005 19.4957 20.1996 19.523 20.5413L19.8476 24.6092C19.908 25.3675 20.5512 25.9615 21.3119 25.9615C22.0726 25.9615 22.7158 25.3675 22.7762 24.6093L23.5922 14.3826C23.6429 13.7481 23.4243 13.1161 22.9925 12.6485ZM41.9669 31.8396L24.5049 2.32718C23.8279 1.18309 22.6343 0.5 21.312 0.5C19.9897 0.5 18.796 1.18301 18.1191 2.32718L0.656938 31.8396C-0.0402224 33.0179 -0.0514762 34.4315 0.6269 35.6211C1.29775 36.7975 2.50257 37.4999 3.84981 37.4999H38.774C40.1213 37.4999 41.3261 36.7975 41.9969 35.6211C42.6753 34.4315 42.664 33.0179 41.9669 31.8396ZM40.9187 35.0062C40.4715 35.7904 39.6698 36.2586 38.7741 36.2586H3.84981C2.95413 36.2586 2.15238 35.7904 1.7052 35.0062C1.2505 34.2088 1.25794 33.2613 1.72523 32.4716L19.1873 2.9593C19.6386 2.1966 20.4328 1.74132 21.3119 1.74132C22.191 1.74132 22.9853 2.1966 23.4366 2.9593L40.8986 32.4716C41.3659 33.2614 41.3734 34.2089 40.9187 35.0062ZM21.3119 27.1459C20.235 27.1459 19.3589 28.0221 19.3589 29.099C19.3589 30.1759 20.235 31.052 21.3119 31.052C22.3888 31.052 23.265 30.1759 23.265 29.099C23.265 28.0221 22.3888 27.1459 21.3119 27.1459ZM21.3119 29.8108C20.9194 29.8108 20.6001 29.4914 20.6001 29.099C20.6001 28.7065 20.9194 28.3872 21.3119 28.3872C21.7044 28.3872 22.0237 28.7065 22.0237 29.099C22.0237 29.4914 21.7044 29.8108 21.3119 29.8108Z" fill="#ED1C24"/>
<path d="M21.2721 11.7998C20.2228 11.7998 19.4038 12.3629 19.4038 13.3611C19.4038 16.4068 19.7621 20.7833 19.7621 23.829C19.7621 24.6224 20.4533 24.9551 21.2722 24.9551C21.8865 24.9551 22.7566 24.6224 22.7566 23.829C22.7566 20.7834 23.1149 16.4068 23.1149 13.3611C23.1149 12.363 22.2704 11.7998 21.2721 11.7998Z" fill="white"/>
<path d="M21.2973 26.7207C20.1712 26.7207 19.3265 27.6165 19.3265 28.6915C19.3265 29.7409 20.1712 30.6623 21.2973 30.6623C22.3467 30.6623 23.2425 29.7409 23.2425 28.6915C23.2425 27.6165 22.3466 26.7207 21.2973 26.7207Z" fill="white"/>
</svg>
