<svg width="18" height="18" viewBox="0 0 18 18" fill="none" xmlns="http://www.w3.org/2000/svg">
<g clip-path="url(#clip0_1_8004)">
<path d="M1.85815 13.6605H1.95005L6.38382 12.6957C6.47018 12.6813 6.55021 12.6413 6.61353 12.5808L14.1256 5.06869C14.6744 4.52112 14.9805 3.77633 14.9756 3.00116C14.9766 2.21996 14.6715 1.4695 14.1256 0.910625C13.5781 0.361862 12.8333 0.0556889 12.0581 0.0606577C11.2779 0.0537542 10.5296 0.369689 9.99053 0.933622L2.50137 8.4457C2.43532 8.49886 2.38717 8.57102 2.36352 8.65245L1.3987 13.0862C1.37236 13.2454 1.42354 13.4076 1.53655 13.5227C1.62137 13.6093 1.73697 13.6588 1.85815 13.6605ZM12.0581 0.979572C13.1619 0.979484 14.0567 1.87426 14.0568 2.97807C14.0568 2.98577 14.0568 2.99346 14.0567 3.00116C14.0642 3.52701 13.8568 4.03317 13.4824 4.40248L10.6567 1.55384C11.029 1.18391 11.5332 0.977242 12.0581 0.979572ZM10.0135 2.22009L12.8391 5.04574L6.29188 11.57L3.46623 8.7673L10.0135 2.22009ZM3.09868 9.68626L5.37296 11.9606L2.45542 12.6038L3.09868 9.68626Z" fill="#FC5285"/>
<path d="M16.4459 16.1416H1.05409C0.800333 16.1416 0.594635 16.3473 0.594635 16.6011C0.594635 16.8548 0.800333 17.0605 1.05409 17.0605H16.4459C16.6996 17.0605 16.9053 16.8548 16.9053 16.6011C16.9053 16.3473 16.6996 16.1416 16.4459 16.1416Z" fill="#FC5285"/>
</g>
<defs>
<clipPath id="clip0_1_8004">
<rect width="17" height="17" fill="white" transform="translate(0.25 0.0605469)"/>
</clipPath>
</defs>
</svg>
