<svg width="27" height="40" viewBox="0 0 27 40" fill="none" xmlns="http://www.w3.org/2000/svg">
<path d="M24.4199 27.8047C23.9884 27.8047 23.6387 28.1545 23.6387 28.5859V33.044C23.6387 33.4754 23.9884 33.8252 24.4199 33.8252C24.8513 33.8252 25.2012 33.4754 25.2012 33.044V28.5859C25.2012 28.1545 24.8513 27.8047 24.4199 27.8047Z" fill="#020288"/>
<path d="M24.4199 20.6602C23.9884 20.6602 23.6387 21.01 23.6387 21.4414V25.5005C23.6387 25.932 23.9884 26.2818 24.4199 26.2818C24.8513 26.2818 25.2012 25.932 25.2012 25.5005V21.4414C25.2012 21.01 24.8513 20.6602 24.4199 20.6602Z" fill="#020288"/>
<path d="M24.4197 14.1896H22.2847V9.5832C22.2847 4.29898 17.9857 0 12.7015 0H12.7014C7.41723 0 3.11824 4.29898 3.11824 9.5832V14.1896H0.983399C0.551914 14.1896 0.202148 14.5395 0.202148 14.9709V39.2188C0.202148 39.6502 0.551914 40 0.983399 40H24.4197C24.8511 40 25.2009 39.6502 25.2009 39.2188V35.6499C25.2009 35.2185 24.8511 34.8687 24.4197 34.8687C23.9882 34.8687 23.6384 35.2185 23.6384 35.6499V38.4375H1.76465V15.7521H23.6384V18.2164C23.6384 18.6478 23.9882 18.9977 24.4197 18.9977C24.8511 18.9977 25.2009 18.6478 25.2009 18.2164V14.9709C25.2009 14.5395 24.8511 14.1896 24.4197 14.1896ZM17.2847 14.1896H8.11824V9.5832C8.11824 7.05602 10.1743 5 12.7014 5C15.2286 5 17.2847 7.05602 17.2847 9.5832V14.1896ZM18.8472 14.1896V9.5832C18.8472 6.19445 16.0902 3.4375 12.7014 3.4375C9.3127 3.4375 6.55574 6.19445 6.55574 9.5832V14.1896H4.68074V9.5832C4.68074 5.16062 8.27887 1.5625 12.7015 1.5625C17.1242 1.5625 20.7222 5.16062 20.7222 9.5832V14.1896H18.8472Z" fill="#020288"/>
<path d="M12.7011 31.1573C13.1325 31.1573 13.4823 30.8074 13.4823 30.376V29.0928C14.4328 28.7673 15.118 27.8649 15.118 26.8055C15.118 25.4728 14.0338 24.3887 12.7011 24.3887C11.3684 24.3887 10.2842 25.4729 10.2842 26.8055C10.2842 27.8649 10.9693 28.7673 11.9198 29.0928V30.376C11.9198 30.8075 12.2696 31.1573 12.7011 31.1573ZM12.7011 25.9512C13.1721 25.9512 13.5555 26.3345 13.5555 26.8055C13.5555 27.2766 13.1722 27.6599 12.7011 27.6599C12.2299 27.6599 11.8467 27.2767 11.8467 26.8055C11.8467 26.3345 12.23 25.9512 12.7011 25.9512Z" fill="#020288"/>
<path d="M17.2295 32.2412H26.7986V36.4649H17.2295V32.2412Z" fill="#B2F0FB"/>
<path d="M17.2295 24.9834H26.7986V29.2071H17.2295V24.9834Z" fill="#B2F0FB"/>
<path d="M17.2295 17.7256H26.7986V21.9493H17.2295V17.7256Z" fill="#B2F0FB"/>
</svg>
