<svg width="21" height="22" viewBox="0 0 21 22" fill="none" xmlns="http://www.w3.org/2000/svg">
<g clip-path="url(#clip0_1_9545)">
<path d="M10.7492 10.7704C12.9729 10.7704 14.7757 8.4713 14.7757 5.63522C14.7757 2.79908 14.1838 0.5 10.7492 0.5C7.31466 0.5 6.72266 2.79908 6.72266 5.63522C6.72266 8.4713 8.52546 10.7704 10.7492 10.7704Z" fill="#BCC1CA"/>
<path d="M3.14439 18.6113C3.14295 18.5626 3.14367 18.4384 3.14439 18.6113V18.6113Z" fill="#BCC1CA"/>
<path d="M18.3545 18.7459C18.3553 18.4175 18.3568 18.6986 18.3545 18.7459V18.7459Z" fill="#BCC1CA"/>
<path d="M18.3461 18.4035C18.2715 13.463 17.657 12.0552 12.9545 11.1641C12.9545 11.1641 12.2926 12.0497 10.7497 12.0497C9.20687 12.0497 8.54482 11.1641 8.54482 11.1641C3.89367 12.0455 3.24179 13.4324 3.15607 18.243C3.14905 18.6358 3.14579 18.6564 3.14453 18.6108C3.14482 18.6963 3.14516 18.8543 3.14516 19.1299C3.14516 19.1299 4.2647 21.4997 10.7497 21.4997C17.2346 21.4997 18.3543 19.1299 18.3543 19.1299C18.3543 18.9528 18.3544 18.8297 18.3546 18.746C18.3533 18.7742 18.3508 18.7195 18.3461 18.4035Z" fill="#BCC1CA"/>
</g>
<defs>
<clipPath id="clip0_1_9545">
<rect width="20" height="21" fill="white" transform="translate(0.75 0.5)"/>
</clipPath>
</defs>
</svg>
