<svg width="17" height="15" viewBox="0 0 17 15" fill="none" xmlns="http://www.w3.org/2000/svg">
<g clip-path="url(#clip0_1_7996)">
<path d="M4.79877 3.29372H4.26544V2.79372C4.26544 2.55007 4.05474 2.35254 3.79485 2.35254C3.53496 2.35254 3.32426 2.55007 3.32426 2.79372V3.29372H2.79093C2.53104 3.29372 2.32034 3.49124 2.32034 3.73489C2.32034 3.97854 2.53104 4.17607 2.79093 4.17607H3.32426V4.67607C3.32426 4.91972 3.53496 5.11724 3.79485 5.11724C4.05474 5.11724 4.26544 4.91972 4.26544 4.67607V4.17607H4.79877C5.05866 4.17607 5.26936 3.97854 5.26936 3.73489C5.26936 3.49124 5.05866 3.29372 4.79877 3.29372Z" fill="#FC5285"/>
<path d="M10.3204 6.29446H13.8341C14.094 6.29446 14.3047 6.09693 14.3047 5.85329C14.3047 5.60964 14.094 5.41211 13.8341 5.41211H10.3204C10.0605 5.41211 9.84976 5.60964 9.84976 5.85329C9.84976 6.09693 10.0605 6.29446 10.3204 6.29446Z" fill="#FC5285"/>
<path d="M10.3204 8.1763H13.8341C14.094 8.1763 14.3047 7.97877 14.3047 7.73512C14.3047 7.49147 14.094 7.29395 13.8341 7.29395H10.3204C10.0605 7.29395 9.84976 7.49147 9.84976 7.73512C9.84976 7.97877 10.0605 8.1763 10.3204 8.1763Z" fill="#FC5285"/>
<path d="M15.8419 0.941176H6.76197L6.18563 0.184735C6.09732 0.0687941 5.9547 0 5.8027 0H0.783088C0.523198 0 0.3125 0.197529 0.3125 0.441176V14.5588C0.3125 14.8025 0.523198 15 0.783088 15H15.8419C16.1018 15 16.3125 14.8025 16.3125 14.5588C16.3125 13.2662 16.3125 2.88926 16.3125 1.38235C16.3125 1.13871 16.1018 0.941176 15.8419 0.941176ZM9.39548 14.1176H3.26152V13.1918C3.26152 10.6283 6.57958 9.36115 8.49769 11.1584C9.07661 11.7012 9.39545 12.4233 9.39545 13.1918V14.1176H9.39548ZM5.03034 8.21709C5.03034 7.546 5.6127 7 6.32856 7C7.04442 7 7.62679 7.54597 7.62679 8.21709C7.62679 8.88662 7.04612 9.43412 6.3285 9.43412C5.61296 9.43412 5.03034 8.88838 5.03034 8.21709ZM15.3713 14.1176H10.3367V13.1918C10.3367 11.6256 9.31812 10.2917 7.8831 9.72612C9.32913 8.41644 8.33151 6.11765 6.32856 6.11765C4.3291 6.11765 3.32511 8.41653 4.77568 9.72762C3.33449 10.2976 2.32034 11.6357 2.32034 13.1918V14.1176H1.25368V0.882353H5.5605L7.92957 3.99174C8.01788 4.10768 8.1605 4.17647 8.3125 4.17647H15.3713V14.1176ZM15.3713 3.29412H8.5547L7.43426 1.82353H15.3713V3.29412Z" fill="#FC5285"/>
</g>
<defs>
<clipPath id="clip0_1_7996">
<rect width="16" height="15" fill="white" transform="translate(0.3125)"/>
</clipPath>
</defs>
</svg>
