<svg width="19" height="19" viewBox="0 0 19 19" fill="none" xmlns="http://www.w3.org/2000/svg">
<g clip-path="url(#clip0_1_8012)">
<path d="M9.8125 4.56055H12.625V5.12305H9.8125V4.56055Z" fill="#FC5285"/>
<path d="M9.8125 5.68555H12.625V6.24805H9.8125V5.68555Z" fill="#FC5285"/>
<path d="M9.8125 6.81055H12.625V7.37305H9.8125V6.81055Z" fill="#FC5285"/>
<path d="M9.8125 7.93555H12.625V8.49805H9.8125V7.93555Z" fill="#FC5285"/>
<path d="M6.68275 5.07186C6.88875 5.1401 7.11125 5.1401 7.31725 5.07186C7.36714 5.2479 7.4729 5.40296 7.6186 5.51365C7.7643 5.62434 7.94203 5.68467 8.125 5.68555H8.40625C8.48084 5.68555 8.55238 5.71518 8.60512 5.76792C8.65787 5.82067 8.6875 5.8922 8.6875 5.9668V6.81055H9.25V5.9668C9.25 5.74302 9.16111 5.52841 9.00287 5.37018C8.84464 5.21194 8.63003 5.12305 8.40625 5.12305H8.125C8.05041 5.12305 7.97887 5.09342 7.92613 5.04067C7.87338 4.98793 7.84375 4.91639 7.84375 4.8418V4.73436C8.02398 4.53133 8.12398 4.26953 8.125 3.99805V3.43555C8.125 3.13718 8.00647 2.85103 7.7955 2.64005C7.58452 2.42907 7.29837 2.31055 7 2.31055C6.70163 2.31055 6.41548 2.42907 6.20451 2.64005C5.99353 2.85103 5.875 3.13718 5.875 3.43555V3.99805C5.87602 4.26953 5.97602 4.53133 6.15625 4.73436V4.8418C6.15625 4.91639 6.12662 4.98793 6.07387 5.04067C6.02113 5.09342 5.94959 5.12305 5.875 5.12305H5.59375C5.36997 5.12305 5.15536 5.21194 4.99713 5.37018C4.83889 5.52841 4.75 5.74302 4.75 5.9668V6.81055H5.3125V5.9668C5.3125 5.8922 5.34213 5.82067 5.39488 5.76792C5.44762 5.71518 5.51916 5.68555 5.59375 5.68555H5.875C6.05797 5.68467 6.2357 5.62434 6.3814 5.51365C6.5271 5.40296 6.63286 5.2479 6.68275 5.07186ZM6.4375 3.43555C6.4375 3.28636 6.49676 3.14329 6.60225 3.0378C6.70774 2.93231 6.85082 2.87305 7 2.87305C7.14918 2.87305 7.29226 2.93231 7.39775 3.0378C7.50324 3.14329 7.5625 3.28636 7.5625 3.43555V3.99805C7.5625 4.14723 7.50324 4.29031 7.39775 4.39579C7.29226 4.50128 7.14918 4.56055 7 4.56055C6.85082 4.56055 6.70774 4.50128 6.60225 4.39579C6.49676 4.29031 6.4375 4.14723 6.4375 3.99805V3.43555Z" fill="#FC5285"/>
<path d="M10.0938 3.99805H12.3438C12.4183 3.99805 12.4899 3.96842 12.5426 3.91567C12.5954 3.86293 12.625 3.79139 12.625 3.7168V2.5918C12.625 2.5172 12.5954 2.44567 12.5426 2.39292C12.4899 2.34018 12.4183 2.31055 12.3438 2.31055H10.0938C10.0192 2.31055 9.94762 2.34018 9.89488 2.39292C9.84213 2.44567 9.8125 2.5172 9.8125 2.5918V3.7168C9.8125 3.79139 9.84213 3.86293 9.89488 3.91567C9.94762 3.96842 10.0192 3.99805 10.0938 3.99805ZM10.375 2.87305H12.0625V3.43555H10.375V2.87305Z" fill="#FC5285"/>
<path d="M18.25 8.49805C18.2496 8.05063 18.0716 7.62167 17.7552 7.3053C17.4389 6.98893 17.0099 6.81099 16.5625 6.81055H14.875V2.5918C14.875 2.5172 14.8454 2.44567 14.7926 2.39292C14.7399 2.34018 14.6683 2.31055 14.5938 2.31055H13.75V1.4668C13.75 1.3922 13.7204 1.32067 13.6676 1.26792C13.6149 1.21518 13.5433 1.18555 13.4688 1.18555H3.90625C3.83166 1.18555 3.76012 1.21518 3.70738 1.26792C3.65463 1.32067 3.625 1.3922 3.625 1.4668V7.6543H2.78125C2.40843 7.65474 2.051 7.80304 1.78737 8.06667C1.52375 8.3303 1.37545 8.68772 1.375 9.06055V16.6543C1.37545 17.0271 1.52375 17.3845 1.78737 17.6482C2.051 17.9118 2.40843 18.0601 2.78125 18.0605H14.5938C14.9555 18.0593 15.3028 17.9187 15.5636 17.6679C15.8243 17.4172 15.9784 17.0756 15.9938 16.7142L18.2399 8.57286C18.2466 8.54849 18.25 8.52333 18.25 8.49805ZM14.3125 2.87305V9.06055H13.75V2.87305H14.3125ZM4.1875 1.74805H13.1875V9.06055H7.67894L6.35509 7.7367C6.30236 7.68395 6.23084 7.65431 6.15625 7.6543H4.1875V1.74805ZM15.4375 16.6543C15.4375 16.8781 15.3486 17.0927 15.1904 17.2509C15.0321 17.4092 14.8175 17.498 14.5938 17.498H2.78125C2.55747 17.498 2.34286 17.4092 2.18463 17.2509C2.02639 17.0927 1.9375 16.8781 1.9375 16.6543V9.06055C1.9375 8.83677 2.02639 8.62216 2.18463 8.46393C2.34286 8.30569 2.55747 8.2168 2.78125 8.2168H6.03981L7.36366 9.54064C7.41639 9.59339 7.48791 9.62303 7.5625 9.62305H14.5938C14.8175 9.62305 15.0321 9.71194 15.1904 9.87018C15.3486 10.0284 15.4375 10.243 15.4375 10.4668V16.6543ZM16 14.5773V10.4668C15.9996 10.1427 15.8875 9.82873 15.6825 9.57769C15.4776 9.32666 15.1924 9.15395 14.875 9.08867V7.37305H16.5625C16.8547 7.3729 17.1356 7.48647 17.3455 7.68972C17.5555 7.89298 17.6781 8.16996 17.6875 8.46205L16 14.5773Z" fill="#FC5285"/>
<path d="M11.5 12.1543H10.0938V10.748C10.0938 10.6735 10.0641 10.6019 10.0114 10.5492C9.95863 10.4964 9.88709 10.4668 9.8125 10.4668H7.5625C7.48791 10.4668 7.41637 10.4964 7.36363 10.5492C7.31088 10.6019 7.28125 10.6735 7.28125 10.748V12.1543H5.875C5.80041 12.1543 5.72887 12.1839 5.67613 12.2367C5.62338 12.2894 5.59375 12.361 5.59375 12.4355V14.6855C5.59375 14.7601 5.62338 14.8317 5.67613 14.8844C5.72887 14.9372 5.80041 14.9668 5.875 14.9668H7.28125V16.373C7.28125 16.4476 7.31088 16.5192 7.36363 16.5719C7.41637 16.6247 7.48791 16.6543 7.5625 16.6543H9.8125C9.88709 16.6543 9.95863 16.6247 10.0114 16.5719C10.0641 16.5192 10.0938 16.4476 10.0938 16.373V14.9668H11.5C11.5746 14.9668 11.6461 14.9372 11.6989 14.8844C11.7516 14.8317 11.7812 14.7601 11.7812 14.6855V12.4355C11.7812 12.361 11.7516 12.2894 11.6989 12.2367C11.6461 12.1839 11.5746 12.1543 11.5 12.1543ZM11.2188 14.4043H9.8125C9.73791 14.4043 9.66637 14.4339 9.61363 14.4867C9.56088 14.5394 9.53125 14.611 9.53125 14.6855V16.0918H7.84375V14.6855C7.84375 14.611 7.81412 14.5394 7.76137 14.4867C7.70863 14.4339 7.63709 14.4043 7.5625 14.4043H6.15625V12.7168H7.5625C7.63709 12.7168 7.70863 12.6872 7.76137 12.6344C7.81412 12.5817 7.84375 12.5101 7.84375 12.4355V11.0293H9.53125V12.4355C9.53125 12.5101 9.56088 12.5817 9.61363 12.6344C9.66637 12.6872 9.73791 12.7168 9.8125 12.7168H11.2188V14.4043Z" fill="#FC5285"/>
</g>
<defs>
<clipPath id="clip0_1_8012">
<rect width="18" height="18" fill="white" transform="translate(0.8125 0.623047)"/>
</clipPath>
</defs>
</svg>
