<svg width="19" height="23" viewBox="0 0 19 23" fill="none" xmlns="http://www.w3.org/2000/svg">
<path d="M5.54065 6.43279C5.68805 6.73419 5.84645 6.99819 5.90805 7.31279C6.07965 8.18619 6.47345 8.97159 7.06305 9.62059C7.43705 10.032 7.41505 10.4544 7.28745 10.879C7.17745 11.2464 7.21045 11.5148 7.45465 11.7964C7.78025 12.1748 8.10585 12.551 8.55685 12.7908C9.07825 13.0702 9.80865 13.0218 10.3983 12.562C10.8801 12.1858 11.2409 11.704 11.5753 11.198C11.6347 11.11 11.6105 11.033 11.5929 10.9494C11.5709 10.846 11.5511 10.7426 11.5291 10.6414C11.4389 10.2256 11.5621 9.89559 11.8459 9.56999C12.4135 8.91659 12.7919 8.15539 12.9679 7.30399C13.0317 6.99599 13.1945 6.74079 13.3661 6.46799C13.3617 6.57359 13.3661 6.68139 13.3507 6.78699C13.1879 7.87379 13.3111 8.94739 13.5047 10.0122C13.5861 10.45 13.7291 10.8812 13.9051 11.297C14.0085 11.539 14.2549 11.5346 14.4441 11.6116C15.1283 11.8844 15.7927 12.1924 16.4219 12.5796C16.9917 12.9294 17.2799 13.4618 17.4823 14.0624C17.7991 14.9996 18.0763 15.9478 18.2654 16.9224C18.4722 17.9916 18.5537 19.0652 18.4921 20.152C18.4635 20.6272 18.1643 20.911 17.7661 21.0606C16.8223 21.4148 15.8499 21.6898 14.8599 21.8922C14.2769 22.011 13.6917 22.1012 13.1109 22.2134C12.6709 22.2992 12.2397 22.2882 11.8019 22.2904C10.6491 22.2992 9.49405 22.275 8.34125 22.2992C7.23245 22.3212 6.14345 22.2046 5.05225 22C3.92805 21.791 2.81925 21.5402 1.73685 21.1816C1.43105 21.0804 1.12965 20.966 0.832652 20.8406C0.372852 20.647 0.300252 20.2334 0.267252 19.8198C0.216652 19.1752 0.333252 18.5372 0.401452 17.9014C0.493852 17.0456 0.641252 16.1964 0.852452 15.3604C1.05045 14.575 1.29025 13.8006 1.72145 13.112C2.06685 12.5598 2.62565 12.2562 3.22625 12.0362C3.72565 11.8558 4.22725 11.682 4.72665 11.4994C4.84105 11.4576 4.92245 11.385 4.97525 11.253C5.27445 10.4852 5.44605 9.69539 5.52085 8.87259C5.58685 8.15979 5.61765 7.45359 5.51205 6.74299C5.50105 6.65279 5.48125 6.55599 5.54065 6.43279ZM8.77245 19.1532C8.77245 19.3556 8.78125 19.5228 8.77025 19.69C8.75925 19.8572 8.81205 19.9298 8.99025 19.921C9.25425 19.91 9.51825 19.91 9.78225 19.921C9.96265 19.9298 10.0089 19.8506 10.0045 19.6878C9.99565 19.371 10.0111 19.0542 9.99785 18.7374C9.99125 18.5482 10.0463 18.4668 10.2509 18.4756C10.5677 18.4888 10.8845 18.4712 11.2013 18.4822C11.3751 18.4888 11.4389 18.4184 11.4367 18.2512C11.4323 17.9872 11.4257 17.7232 11.4389 17.4614C11.4499 17.2744 11.3597 17.2392 11.2013 17.2414C10.9021 17.248 10.6029 17.2436 10.3037 17.248C10.0859 17.2524 9.98245 17.1688 9.99565 16.9334C10.0133 16.6276 9.99785 16.3174 10.0045 16.0094C10.0066 15.8642 9.95825 15.8048 9.80425 15.8092C9.53145 15.818 9.25865 15.8158 8.98585 15.8092C8.83185 15.807 8.76365 15.8576 8.76805 16.0226C8.77685 16.3394 8.75925 16.6562 8.77465 16.973C8.78345 17.1754 8.69105 17.2392 8.51065 17.2392C8.28185 17.2392 8.05305 17.2414 7.82425 17.2436C7.33365 17.2502 7.33365 17.2524 7.33585 17.7518C7.33805 18.48 7.33805 18.4756 8.06185 18.4822C8.28845 18.4844 8.57665 18.3832 8.72185 18.5306C8.87145 18.6736 8.74825 18.964 8.77245 19.1532ZM6.46685 5.43399C6.16765 5.43399 5.86845 5.42739 5.56925 5.43619C5.36905 5.44279 5.28765 5.36799 5.28105 5.16119C5.26345 4.65079 5.22825 4.13599 5.29865 3.63219C5.46805 2.43319 6.10165 1.09119 7.68125 0.60939C8.39185 0.39159 9.10685 0.22879 9.83945 0.32339C11.2167 0.49939 12.4289 1.01199 13.1021 2.32539C13.5355 3.16799 13.5333 4.10299 13.4959 5.02919C13.4937 5.11279 13.5069 5.19859 13.3485 5.16779C13.2253 5.14359 13.2055 5.30419 13.1857 5.39659C13.1549 5.54179 13.1131 5.56379 12.9745 5.49119C12.3739 5.17659 11.9801 4.68599 11.7381 4.06779C11.6721 3.89839 11.6435 3.86759 11.4741 3.98639C10.3763 4.75199 9.15525 5.18099 7.82865 5.35699C7.37545 5.41859 6.92225 5.43839 6.46685 5.43399Z" fill="#BCC1CA"/>
</svg>
